<?xml version="1.0" encoding="UTF-8" standalone="no"?>
<!-- Created with Inkscape (http://www.inkscape.org/) -->

<svg
   width="99.565895mm"
   height="76.927315mm"
   viewBox="0 0 99.565897 76.927314"
   version="1.1"
   id="svg1"
   xml:space="preserve"
   sodipodi:docname="lab-logo.svg"
   inkscape:version="1.3 (0e150ed6c4, 2023-07-21)"
   xmlns:inkscape="http://www.inkscape.org/namespaces/inkscape"
   xmlns:sodipodi="http://sodipodi.sourceforge.net/DTD/sodipodi-0.dtd"
   xmlns="http://www.w3.org/2000/svg"
   xmlns:svg="http://www.w3.org/2000/svg"><sodipodi:namedview
     id="namedview1"
     pagecolor="#505050"
     bordercolor="#ffffff"
     borderopacity="1"
     inkscape:showpageshadow="0"
     inkscape:pageopacity="0"
     inkscape:pagecheckerboard="1"
     inkscape:deskcolor="#d1d1d1"
     inkscape:document-units="mm"
     inkscape:zoom="2.4363758"
     inkscape:cx="170.95064"
     inkscape:cy="135.65231"
     inkscape:window-width="1920"
     inkscape:window-height="1008"
     inkscape:window-x="0"
     inkscape:window-y="0"
     inkscape:window-maximized="1"
     inkscape:current-layer="layer1" /><defs
     id="defs1"><clipPath
       clipPathUnits="userSpaceOnUse"
       id="clipPath10"><rect
         style="fill:#9a3324;fill-opacity:1;stroke:none;stroke-width:1;stroke-linecap:square;stroke-linejoin:miter;stroke-dasharray:none"
         id="rect11"
         width="31.664934"
         height="31.664934"
         x="31.314476"
         y="52.141075" /></clipPath><clipPath
       clipPathUnits="userSpaceOnUse"
       id="clipPath5"><path
         d="M 9.12e-6,0 H 612.00001 V 792 H 9.12e-6 Z"
         transform="matrix(1,0,0,-1,-72.025002,510.40001)"
         clip-rule="evenodd"
         id="path5-5" /></clipPath></defs><g
     inkscape:label="Layer 1"
     inkscape:groupmode="layer"
     id="layer1"
     transform="translate(45.69352,-115.59119)"><rect
       style="fill:#ffffff;fill-opacity:1;stroke:#ffffff;stroke-width:10;stroke-linecap:square;stroke-linejoin:miter;stroke-dasharray:none"
       id="rect35"
       width="89.565895"
       height="66.927315"
       x="-40.69352"
       y="120.59119" /><g
       id="g29"><path
         style="fill:#00274c;stroke:#000000;stroke-width:1;stroke-linecap:butt;stroke-linejoin:miter;stroke-dasharray:none;stroke-opacity:1"
         d="m -33.246684,175.68994 v -22.34761 l 14.836354,-8.03422 v 30.38183 z"
         id="path4-3"
         sodipodi:nodetypes="ccccc" /><path
         style="fill:#ffcb05;stroke:#000000;stroke-width:1;stroke-linecap:butt;stroke-linejoin:miter;stroke-dasharray:none;stroke-opacity:1"
         d="M 20.335854,175.68994 H 41.42555 v -12.61192 l -21.089698,-9.83429"
         id="path5"
         sodipodi:nodetypes="cccc" /><path
         style="fill:#8c1515;fill-opacity:1;stroke:#000000;stroke-width:1;stroke-linecap:butt;stroke-linejoin:miter;stroke-dasharray:none;stroke-opacity:1"
         d="m -5.0453478,175.68994 v -40.51385 l 25.3812018,-13.7445 -0.12332,54.25835 z"
         id="path4-2"
         sodipodi:nodetypes="ccccc" /><path
         style="fill:#ffffff;fill-opacity:0.5;stroke:#000000;stroke-width:1;stroke-linecap:butt;stroke-linejoin:miter;stroke-dasharray:none;stroke-opacity:1"
         d="M 3.3178642,175.68994 3.3178595,145.30811 -18.41033,135.27 v 40.41994 z"
         id="path4"
         sodipodi:nodetypes="ccccc" /></g><g
       id="g35"><path
         style="fill:#ffffff;stroke:none;stroke-width:0.302845px;stroke-linecap:butt;stroke-linejoin:miter;stroke-opacity:1"
         d="m 11.278692,177.61955 0.831843,-10.68235 0.831855,10.68235 h -1.663698"
         id="path6" /><path
         style="fill:none;stroke:#000000;stroke-width:1;stroke-linecap:square;stroke-linejoin:bevel;stroke-dasharray:none;stroke-opacity:1"
         d="M 48.37238,175.68994 H 13.71821 l -0.3879,4.38145 -0.38792,-4.38145 -0.77491,-8.75274 -0.7749,8.75274 h -51.586099"
         id="path3"
         sodipodi:nodetypes="ccccccc" /></g><g
       id="g10"
       clip-path="url(#clipPath10)"
       transform="matrix(1.1532585,0,0,1.1532585,-6.5923699,54.513132)"><circle
         style="fill:none;fill-opacity:0.5;stroke:#131516;stroke-width:1;stroke-linecap:square;stroke-linejoin:bevel;stroke-dasharray:none"
         id="path7-29"
         cx="31.314476"
         cy="83.806007"
         r="13.88243" /><circle
         style="fill:none;fill-opacity:0.5;stroke:#131516;stroke-width:1;stroke-linecap:square;stroke-linejoin:bevel;stroke-dasharray:none"
         id="path7"
         r="3.4706075"
         cy="83.806007"
         cx="31.314476" /><circle
         style="fill:none;fill-opacity:0.5;stroke:#131516;stroke-width:1;stroke-linecap:square;stroke-linejoin:bevel;stroke-dasharray:none"
         id="path7-2"
         cx="31.314476"
         cy="83.806007"
         r="10.411822" /><circle
         style="fill:none;fill-opacity:0.5;stroke:#131516;stroke-width:1;stroke-linecap:square;stroke-linejoin:bevel;stroke-dasharray:none"
         id="path7-9"
         cx="31.314476"
         cy="83.806007"
         r="6.941215" /></g><g
       id="g4"
       transform="matrix(0.16135931,0,0,0.16135931,-53.875436,126.83795)"><path
         id="path4-9"
         d="m 2.5560547,-3.1654297 c 0,-0.1787109 0.052734,-0.3076172 0.1640625,-0.3867187 0.1083984,-0.084961 0.2285156,-0.1289063 0.3632812,-0.1289063 h 0.082031 c 1.0927734,0.2109375 2.3085937,0.3867188 3.6445312,0.5273438 1.3359375,0.1347656 2.5107422,0.1992187 3.5273444,0.1992187 2.756836,0 4.488281,-0.2841797 5.191406,-0.8554687 0.708984,-0.5771485 1.066406,-1.5996094 1.066406,-3.0703125 0,-1.0839844 -0.169922,-1.7958985 -0.503906,-2.1328125 -0.328125,-0.3339844 -1.300781,-0.6796875 -2.917969,-1.0312501 -1.611328,-0.357422 -2.750976,-0.600586 -3.4218751,-0.726562 -0.6738281,-0.131836 -1.6875,-0.354493 -3.046875,-0.667969 -1.359375,-0.310547 -2.3056641,-0.597656 -2.8359375,-0.855469 -0.5244141,-0.257812 -0.9023438,-0.776367 -1.1367188,-1.558594 -0.234375,-0.788086 -0.3515625,-1.725586 -0.3515625,-2.8125 0,-2.882812 0.7294922,-4.936523 2.1914063,-6.164062 1.4677734,-1.22461 4.1015625,-1.839844 7.8984376,-1.839844 1.740235,0 3.084961,0.05859 4.03125,0.175781 0.94336,0.117188 1.576172,0.28125 1.898438,0.492188 0.319336,0.205078 0.632812,0.583008 0.9375,1.136719 0.304687,0.547851 0.457031,1.013671 0.457031,1.394531 0,0.164062 -0.04395,0.292969 -0.128906,0.386719 -0.08789,0.08789 -0.1875,0.128906 -0.304688,0.128906 h -0.09375 c -0.796875,-0.08496 -1.754883,-0.1875 -2.871094,-0.304688 -1.11914,-0.117187 -2.332031,-0.175781 -3.644531,-0.175781 -2.642578,0 -4.4179689,0.28125 -5.3320314,0.84375 -0.9140625,0.5625 -1.3710937,1.664063 -1.3710937,3.304688 0,1.007812 0.140625,1.675781 0.421875,2.003906 0.28125,0.322265 1.2246094,0.65332 2.8359375,0.996094 1.6171876,0.336914 3.4951176,0.723632 5.6367186,1.160156 2.147461,0.439453 3.451172,0.785156 3.914063,1.042969 0.459961,0.251953 0.826172,0.74414 1.101562,1.476562 0.28125,0.7265626 0.421875,1.7080079 0.421875,2.9414063 0,2.7744141 -0.585937,4.7988281 -1.757812,6.0703125 -1.171875,1.27441407 -3.911133,1.91015626 -8.214844,1.91015626 -1.5234376,0 -2.8828126,-0.0761719 -4.0781251,-0.22265625 C 5.1341794,-0.05410156 4.3490231,-0.25332031 3.9740231,-0.50527344 3.5990231,-0.75429688 3.2650388,-1.1498047 2.9779294,-1.6888672 2.6966794,-2.2279297 2.5560544,-2.7201172 2.5560547,-3.1654297 Z M 26.684961,-21.399805 c 0,-0.685547 0.05273,-1.166015 0.164062,-1.441406 0.117188,-0.28125 0.424805,-0.503906 0.925782,-0.667969 0.506836,-0.169922 1.113281,-0.304687 1.816406,-0.398437 h 0.08203 c 0.131836,0 0.240235,0.04394 0.328125,0.128906 0.08496,0.08789 0.128906,0.222656 0.128906,0.410156 v 2.589844 c 0,0.9375 0.09375,1.505859 0.28125,1.699219 0.1875,0.1875 0.732422,0.28125 1.640625,0.28125 h 5.777344 c 0.366211,0 0.550781,0.161133 0.550781,0.480469 0,0.383789 -0.175781,0.829101 -0.527343,1.335937 -0.351563,0.500977 -0.65625,0.808594 -0.914063,0.925781 -0.257812,0.117188 -0.688476,0.175782 -1.289062,0.175782 H 31.74746 c -0.688477,0 -1.130859,0.09961 -1.324219,0.292968 -0.196289,0.196289 -0.292969,0.638672 -0.292969,1.324219 v 7.6289063 c 0,1.6113281 0.19043,2.6455078 0.574219,3.1054688 0.38086,0.4541015 1.464844,0.6796875 3.246094,0.6796875 0.726562,0 1.382812,-0.023437 1.96875,-0.070312 0.585937,-0.046875 1.092773,-0.1054688 1.523437,-0.1757813 h 0.07031 c 0.108398,0 0.213867,0.041016 0.316406,0.1171875 0.108399,0.070312 0.164063,0.1728516 0.164063,0.3046875 0,0.4306641 -0.216797,0.9375 -0.644532,1.5234375 -0.430664,0.58007814 -1.013671,0.93750001 -1.746093,1.07812501 -0.726563,0.140625 -1.746094,0.2109375 -3.058594,0.2109375 -1.617188,0 -2.847656,-0.15820312 -3.691406,-0.48046875 -0.84375,-0.328125 -1.417969,-0.83789066 -1.722657,-1.53515626 -0.298828,-0.6943359 -0.445312,-2.015625 -0.445312,-3.9609375 v -8.4609378 c 0,-0.679688 -0.0791,-1.113281 -0.234375,-1.300781 -0.158203,-0.1875 -0.547852,-0.28125 -1.171875,-0.28125 h -1.546875 c -0.140625,0 -0.243164,-0.04102 -0.304688,-0.128907 -0.06445,-0.08496 -0.09375,-0.175781 -0.09375,-0.269531 0,-0.389648 0.105469,-0.811523 0.316407,-1.265625 0.210937,-0.459961 0.416015,-0.785156 0.621093,-0.972656 0.202149,-0.1875 0.574219,-0.28125 1.113282,-0.28125 h 0.550781 c 0.498047,0 0.75,-0.331055 0.75,-0.996094 z m 15.354492,3.433594 c 0,-0.342773 0.19043,-0.539062 0.574219,-0.585937 0.380859,-0.05274 1.256836,-0.146485 2.625,-0.28125 1.374023,-0.140625 2.663086,-0.210938 3.867187,-0.210938 1.757813,0 2.935547,0.06738 3.539063,0.199219 0.609375,0.125976 1.066406,0.46875 1.371094,1.03125 0.304687,0.55664 0.457031,1.101562 0.457031,1.640625 0,0.140625 -0.04102,0.251953 -0.117188,0.328125 -0.0791,0.07031 -0.169921,0.105469 -0.269531,0.105469 h -0.09375 c -0.454101,-0.04687 -1.02832,-0.08496 -1.722656,-0.117188 -0.688477,-0.03809 -1.335938,-0.05859 -1.945313,-0.05859 -1.751953,0 -2.90625,0.04395 -3.46875,0.128907 -0.5625,0.0791 -0.911132,0.199218 -1.042968,0.363281 -0.134766,0.158203 -0.199219,0.533203 -0.199219,1.125 v 13.78124981 c 0,0.34570313 -0.172852,0.515625 -0.515625,0.515625 h -2.578125 c -0.322266,0 -0.480469,-0.16992187 -0.480469,-0.515625 z m 32.707031,16.9218751 c 0,0.18164059 -0.08203,0.32519527 -0.246093,0.43359371 -0.158203,0.11132813 -1.048828,0.27539063 -2.671875,0.4921875 -1.617188,0.21679688 -3.454102,0.328125 -5.507813,0.328125 -2.460937,0 -4.277344,-0.23730469 -5.449219,-0.71484375 -1.171875,-0.47460937 -1.96582,-1.13671876 -2.378906,-1.98046876 -0.407226,-0.84375 -0.609375,-2.3671875 -0.609375,-4.5703125 V -18.317773 c 0,-0.319336 0.134766,-0.480469 0.410156,-0.480469 h 2.050782 c 0.436523,0 0.726562,0.0791 0.867187,0.234375 0.140625,0.149414 0.210938,0.430664 0.210938,0.84375 v 10.1953123 c 0,1.2421875 0.117187,2.1884766 0.351562,2.8359375 0.240235,0.6416016 0.75293,1.1103516 1.535156,1.40625 0.788086,0.2900391 1.851563,0.4335938 3.1875,0.4335938 0.999024,0 1.904297,-0.046875 2.71875,-0.140625 0.811524,-0.09375 1.338868,-0.2373047 1.582032,-0.4335938 0.249023,-0.2021484 0.375,-0.5859375 0.375,-1.1484375 V -18.317773 c 0,-0.319336 0.158203,-0.480469 0.480468,-0.480469 h 2.578125 c 0.342774,0 0.515625,0.18457 0.515625,0.550781 z M 95.617578,-15.645898 c -0.02344,0 -0.550781,-0.05273 -1.582031,-0.164063 -1.025391,-0.117187 -2.138672,-0.175781 -3.339844,-0.175781 -1.705078,0 -3.008789,0.149414 -3.914062,0.445312 -0.899414,0.290039 -1.570313,0.949219 -2.015625,1.980469 -0.445313,1.03125 -0.667969,2.378906 -0.667969,4.0429688 0,2.109375 0.199219,3.5976563 0.597656,4.4648438 0.398438,0.8613281 1.069336,1.4384765 2.015625,1.734375 0.952149,0.290039 2.203125,0.4335937 3.75,0.4335937 1.453125,0 2.674805,-0.073242 3.667969,-0.2226562 0.999023,-0.1552735 1.541016,-0.234375 1.628906,-0.234375 0.09375,0 0.181641,0.043945 0.269531,0.1289062 0.08496,0.079102 0.128907,0.1875 0.128907,0.328125 0,0.2900391 -0.137696,0.703125 -0.410157,1.2421875 -0.27539,0.5390625 -0.568359,0.92285157 -0.878906,1.14843751 -0.313476,0.21972656 -0.946289,0.39550781 -1.898437,0.52734375 -0.946289,0.140625 -2.115235,0.2109375 -3.503907,0.2109375 -2.267578,0 -4.02539,-0.28710937 -5.273437,-0.8671875 -1.242188,-0.58593746 -2.165039,-1.55273436 -2.765625,-2.90624996 -0.594727,-1.350586 -0.890625,-3.2695313 -0.890625,-5.7539063 0,-2.2880858 0.351562,-4.1894528 1.054687,-5.7070308 0.703125,-1.514649 1.699219,-2.581055 2.988282,-3.199219 1.294922,-0.615235 3.175781,-0.925781 5.636718,-0.925781 2.991211,0 4.728516,0.328125 5.214844,0.984375 0.483399,0.65039 0.726563,1.265625 0.726563,1.851562 0,0.172852 -0.06738,0.322266 -0.199219,0.445313 -0.125977,0.125976 -0.240234,0.1875 -0.339844,0.1875 z m 5.800782,-5.753907 c 0,-0.685547 0.0527,-1.166015 0.16406,-1.441406 0.11719,-0.28125 0.42481,-0.503906 0.92578,-0.667969 0.50684,-0.169922 1.11328,-0.304687 1.81641,-0.398437 h 0.082 c 0.13184,0 0.24024,0.04394 0.32813,0.128906 0.085,0.08789 0.1289,0.222656 0.1289,0.410156 v 2.589844 c 0,0.9375 0.0937,1.505859 0.28125,1.699219 0.1875,0.1875 0.73242,0.28125 1.64063,0.28125 h 5.77734 c 0.36621,0 0.55078,0.161133 0.55078,0.480469 0,0.383789 -0.17578,0.829101 -0.52734,1.335937 -0.35156,0.500977 -0.65625,0.808594 -0.91406,0.925781 -0.25782,0.117188 -0.68848,0.175782 -1.28907,0.175782 h -3.90234 c -0.68848,0 -1.13086,0.09961 -1.32422,0.292968 -0.19629,0.196289 -0.29297,0.638672 -0.29297,1.324219 v 7.6289063 c 0,1.6113281 0.19043,2.6455078 0.57422,3.1054688 0.38086,0.4541015 1.46484,0.6796875 3.24609,0.6796875 0.72657,0 1.38282,-0.023437 1.96875,-0.070312 0.58594,-0.046875 1.09278,-0.1054688 1.52344,-0.1757813 h 0.0703 c 0.1084,0 0.21387,0.041016 0.31641,0.1171875 0.1084,0.070312 0.16406,0.1728516 0.16406,0.3046875 0,0.4306641 -0.21679,0.9375 -0.64453,1.5234375 -0.43066,0.58007814 -1.01367,0.93750001 -1.74609,1.07812501 -0.72656,0.140625 -1.7461,0.2109375 -3.0586,0.2109375 -1.61718,0 -2.84765,-0.15820312 -3.6914,-0.48046875 -0.84375,-0.328125 -1.41797,-0.83789066 -1.72266,-1.53515626 -0.29883,-0.6943359 -0.44531,-2.015625 -0.44531,-3.9609375 v -8.4609378 c 0,-0.679688 -0.0791,-1.113281 -0.23438,-1.300781 -0.1582,-0.1875 -0.54785,-0.28125 -1.17187,-0.28125 h -1.546876 c -0.140625,0 -0.243164,-0.04102 -0.304687,-0.128907 -0.06445,-0.08496 -0.09375,-0.175781 -0.09375,-0.269531 0,-0.389648 0.105469,-0.811523 0.316406,-1.265625 0.210938,-0.459961 0.416016,-0.785156 0.621094,-0.972656 0.202148,-0.1875 0.574219,-0.28125 1.113283,-0.28125 h 0.55078 c 0.49805,0 0.75,-0.331055 0.75,-0.996094 z m 32.15039,20.3554691 c 0,0.18164059 -0.082,0.32519527 -0.24609,0.43359371 -0.15821,0.11132813 -1.04883,0.27539063 -2.67188,0.4921875 -1.61719,0.21679688 -3.4541,0.328125 -5.50781,0.328125 -2.46094,0 -4.27734,-0.23730469 -5.44922,-0.71484375 -1.17187,-0.47460937 -1.96582,-1.13671876 -2.37891,-1.98046876 -0.40722,-0.84375 -0.60937,-2.3671875 -0.60937,-4.5703125 V -18.317773 c 0,-0.319336 0.13476,-0.480469 0.41016,-0.480469 h 2.05078 c 0.43652,0 0.72656,0.0791 0.86718,0.234375 0.14063,0.149414 0.21094,0.430664 0.21094,0.84375 v 10.1953123 c 0,1.2421875 0.11719,2.1884766 0.35156,2.8359375 0.24024,0.6416016 0.75293,1.1103516 1.53516,1.40625 0.78809,0.2900391 1.85156,0.4335938 3.1875,0.4335938 0.99902,0 1.9043,-0.046875 2.71875,-0.140625 0.81152,-0.09375 1.33887,-0.2373047 1.58203,-0.4335938 0.24902,-0.2021484 0.375,-0.5859375 0.375,-1.1484375 V -18.317773 c 0,-0.319336 0.1582,-0.480469 0.48047,-0.480469 h 2.57813 c 0.34277,0 0.51562,0.18457 0.51562,0.550781 z m 6.67969,-16.9218751 c 0,-0.342773 0.19043,-0.539062 0.57422,-0.585937 0.38086,-0.05274 1.25683,-0.146485 2.625,-0.28125 1.37402,-0.140625 2.66308,-0.210938 3.86718,-0.210938 1.75782,0 2.93555,0.06738 3.53907,0.199219 0.60937,0.125976 1.0664,0.46875 1.37109,1.03125 0.30469,0.55664 0.45703,1.101562 0.45703,1.640625 0,0.140625 -0.041,0.251953 -0.11719,0.328125 -0.0791,0.07031 -0.16992,0.105469 -0.26953,0.105469 h -0.0937 c -0.4541,-0.04687 -1.02832,-0.08496 -1.72265,-0.117188 -0.68848,-0.03809 -1.33594,-0.05859 -1.94532,-0.05859 -1.75195,0 -2.90625,0.04395 -3.46875,0.128907 -0.5625,0.0791 -0.91113,0.199218 -1.04296,0.363281 -0.13477,0.158203 -0.19922,0.533203 -0.19922,1.125 v 13.78124981 c 0,0.34570313 -0.17286,0.515625 -0.51563,0.515625 h -2.57812 c -0.32227,0 -0.48047,-0.16992187 -0.48047,-0.515625 z m 32.11816,8.3789063 c 0,0.4394531 -0.0586,0.7558594 -0.17578,0.9492188 -0.11719,0.1875 -0.35742,0.28125 -0.71484,0.28125 h -11.37891 c -0.52441,0 -0.86133,0.046875 -1.00781,0.140625 -0.14942,0.09375 -0.22266,0.2783203 -0.22266,0.5507812 0,1.7197266 0.39844,2.953125 1.19531,3.703125 0.79688,0.7441406 2.47266,1.1132813 5.02735,1.1132813 1.2334,0 2.39355,-0.061523 3.48047,-0.1875 1.09277,-0.131836 1.93652,-0.2636719 2.53125,-0.3984375 h 0.0937 c 0.0996,0 0.19336,0.043945 0.28125,0.1289062 0.0937,0.079102 0.14062,0.1962891 0.14062,0.3515625 0,0.421875 -0.18457,0.9111328 -0.55078,1.4648438 -0.36035,0.54785152 -0.70898,0.89941402 -1.04297,1.05468746 -0.33691,0.15820313 -0.96972,0.31054688 -1.89844,0.45703125 -0.92285,0.14648438 -2.18554,0.22265625 -3.78515,0.22265625 -3.53906,0 -5.95313,-0.69433594 -7.24219,-2.08593746 -1.28906,-1.397461 -1.93359,-3.8671875 -1.93359,-7.40625 0,-3.2109371 0.63281,-5.6542971 1.89843,-7.3359371 1.27149,-1.6875 3.69727,-2.53125 7.27735,-2.53125 3.35156,0 5.52539,0.703125 6.52734,2.109375 0.99903,1.40039 1.5,3.873046 1.5,7.4179683 z m -12.30469,-1.4765623 h 7.79297 c 0.32813,0 0.55078,-0.06445 0.66797,-0.199219 0.11719,-0.131836 0.17578,-0.375 0.17578,-0.726562 0,-1.514649 -0.29883,-2.613282 -0.89062,-3.292969 -0.59473,-0.685547 -1.84571,-1.03125 -3.75,-1.03125 -0.96094,0 -1.86035,0.134765 -2.69531,0.398437 -0.82911,0.257813 -1.44727,0.808594 -1.85157,1.652344 -0.40722,0.84375 -0.60937,1.708008 -0.60937,2.589844 0,0.266601 0.0732,0.433594 0.22265,0.503906 0.14649,0.07031 0.45997,0.105469 0.9375,0.105469 z m 30.60059,-4.640625 h -0.0703 c -0.72656,-0.07031 -1.54395,-0.143555 -2.44922,-0.222656 -0.9082,-0.08496 -1.89551,-0.128907 -2.96484,-0.128907 -2.29688,0 -3.68848,0.240235 -4.17188,0.714844 -0.47754,0.477539 -0.71484,1.160156 -0.71484,2.050781 0,0.735352 0.13183,1.195313 0.39843,1.382813 0.26368,0.1875 1.01954,0.407226 2.26172,0.65625 1.24805,0.243164 2.66602,0.536133 4.25391,0.878906 1.59375,0.336914 2.5957,0.6152344 3.01172,0.8320313 0.41308,0.2197266 0.7207,0.6181641 0.92578,1.1953125 0.21094,0.5800781 0.31641,1.3212891 0.31641,2.2265625 0,2.1416016 -0.50977,3.7382813 -1.52344,4.7929688 -1.0166,1.04882809 -3.23438,1.57031246 -6.65625,1.57031246 -1.50879,0 -2.76563,-0.0703125 -3.77344,-0.2109375 -1.00781,-0.13183594 -1.71094,-0.54492187 -2.10937,-1.24218746 -0.39844,-0.694336 -0.59766,-1.21875 -0.59766,-1.5703125 0,-0.178711 0.0469,-0.3046875 0.14062,-0.375 0.0937,-0.076172 0.19043,-0.1171875 0.29297,-0.1171875 h 0.0703 c 0.71777,0.102539 1.58203,0.2109375 2.58984,0.328125 1.01367,0.1113281 2.13281,0.1640625 3.35156,0.1640625 2.03027,0 3.31641,-0.2138672 3.85547,-0.6445313 0.54492,-0.4365234 0.82031,-1.1074219 0.82031,-2.015625 0,-0.515625 -0.082,-0.9023437 -0.24609,-1.1601562 -0.16406,-0.2578125 -0.69727,-0.5039063 -1.59375,-0.7382813 -0.89063,-0.2402344 -1.85156,-0.4716797 -2.88281,-0.6914062 -1.03125,-0.2167969 -2.02735,-0.4365235 -2.98828,-0.65625 -0.95508,-0.225586 -1.67579,-0.4335938 -2.16797,-0.6210938 -0.49219,-0.1933594 -0.82911,-0.5976562 -1.00782,-1.2070313 -0.18164,-0.609375 -0.26953,-1.236328 -0.26953,-1.886719 0,-2.367187 0.55078,-4.066406 1.65235,-5.097656 1.10742,-1.03125 3.26953,-1.546875 6.48047,-1.546875 1.37402,0 2.45214,0.05273 3.23437,0.152344 0.78809,0.102539 1.33594,0.219726 1.64063,0.351562 0.31054,0.125977 0.60937,0.454102 0.89062,0.984375 0.28125,0.533203 0.42188,0.993164 0.42188,1.382813 0,0.164062 -0.044,0.287109 -0.12891,0.363281 -0.0879,0.07031 -0.18457,0.105469 -0.29297,0.105469 z m 29.45508,14.90624981 c 0,0.28125 -0.1377,0.45410156 -0.41016,0.515625 -0.2666,0.0556641 -1.11914,0.15820313 -2.55469,0.3046875 -1.43847,0.14648438 -3.01171,0.22265625 -4.72265,0.22265625 -3.66504,0 -5.98535,-0.41308594 -6.96094,-1.2421875 -0.96973,-0.83496096 -1.45312,-2.30273436 -1.45312,-4.40624996 0,-1.2011719 0.14062,-2.2060547 0.42187,-3.0117188 0.28711,-0.8115234 0.65039,-1.3037109 1.08984,-1.4765625 0.44532,-0.1787108 1.19825,-0.3457028 2.26172,-0.5039058 1.06934,-0.164063 2.56641,-0.316407 4.48828,-0.457032 1.92774,-0.140625 3.14063,-0.210937 3.63282,-0.210937 0.49218,0 0.73828,-0.237305 0.73828,-0.714844 0,-1.420898 -0.14942,-2.393555 -0.44531,-2.917969 -0.29883,-0.530273 -0.76758,-0.870117 -1.40625,-1.019531 -0.64161,-0.155273 -1.78711,-0.234375 -3.4336,-0.234375 -1.64062,0 -3.03515,0.08203 -4.18359,0.246094 -1.14844,0.164062 -1.73145,0.246094 -1.7461,0.246094 -0.10253,0 -0.20507,-0.0293 -0.30468,-0.09375 -0.10254,-0.06152 -0.15235,-0.169922 -0.15235,-0.328125 0,-0.398438 0.22266,-0.949219 0.66797,-1.652344 0.44531,-0.703125 1.28028,-1.136719 2.50781,-1.300781 1.22461,-0.164063 2.63965,-0.246094 4.24219,-0.246094 2.25,0 3.89356,0.193359 4.9336,0.574219 1.03711,0.383789 1.76074,1.098632 2.16796,2.144531 0.41309,1.048828 0.6211,2.938476 0.6211,5.671875 z m -3.50391,-6.83203121 c 0,-0.3046875 -0.0557,-0.4951172 -0.16406,-0.5742188 -0.10254,-0.076172 -0.28711,-0.1171875 -0.55078,-0.1171875 -1.45313,0 -3.03223,0.070312 -4.73438,0.2109375 -1.69629,0.1347656 -2.73047,0.3251953 -3.10547,0.5742188 -0.36914,0.243164 -0.55078,0.9199218 -0.55078,2.0273437 0,1.2128906 0.31055,2.0097656 0.9375,2.390625 0.63282,0.375 1.88965,0.5625 3.77344,0.5625 0.79688,0 1.62012,-0.035156 2.47266,-0.1054687 0.84961,-0.070312 1.38281,-0.2138672 1.59375,-0.4335938 0.21679,-0.2255859 0.32812,-0.7646484 0.32812,-1.6171875 z m 22.86328,-8.0742186 h -0.0703 c -0.72656,-0.07031 -1.54394,-0.143555 -2.44922,-0.222656 -0.9082,-0.08496 -1.89551,-0.128907 -2.96484,-0.128907 -2.29688,0 -3.68848,0.240235 -4.17188,0.714844 -0.47754,0.477539 -0.71484,1.160156 -0.71484,2.050781 0,0.735352 0.13184,1.195313 0.39844,1.382813 0.26367,0.1875 1.01953,0.407226 2.26172,0.65625 1.24804,0.243164 2.66601,0.536133 4.2539,0.878906 1.59375,0.336914 2.59571,0.6152344 3.01172,0.8320313 0.41309,0.2197266 0.7207,0.6181641 0.92578,1.1953125 0.21094,0.5800781 0.31641,1.3212891 0.31641,2.2265625 0,2.1416016 -0.50977,3.7382813 -1.52344,4.7929688 -1.0166,1.04882809 -3.23437,1.57031246 -6.65625,1.57031246 -1.50879,0 -2.76562,-0.0703125 -3.77344,-0.2109375 -1.00781,-0.13183594 -1.71093,-0.54492187 -2.10937,-1.24218746 -0.39844,-0.694336 -0.59766,-1.21875 -0.59766,-1.5703125 0,-0.178711 0.0469,-0.3046875 0.14063,-0.375 0.0937,-0.076172 0.19043,-0.1171875 0.29297,-0.1171875 h 0.0703 c 0.71777,0.102539 1.58203,0.2109375 2.58984,0.328125 1.01367,0.1113281 2.13281,0.1640625 3.35156,0.1640625 2.03028,0 3.31641,-0.2138672 3.85547,-0.6445313 0.54493,-0.4365234 0.82032,-1.1074219 0.82032,-2.015625 0,-0.515625 -0.082,-0.9023437 -0.2461,-1.1601562 -0.16406,-0.2578125 -0.69726,-0.5039063 -1.59375,-0.7382813 -0.89062,-0.2402344 -1.85156,-0.4716797 -2.88281,-0.6914062 -1.03125,-0.2167969 -2.02734,-0.4365235 -2.98828,-0.65625 -0.95508,-0.225586 -1.67578,-0.4335938 -2.16797,-0.6210938 -0.49219,-0.1933594 -0.8291,-0.5976562 -1.00781,-1.2070313 -0.18164,-0.609375 -0.26953,-1.236328 -0.26953,-1.886719 0,-2.367187 0.55078,-4.066406 1.65234,-5.097656 1.10742,-1.03125 3.26953,-1.546875 6.48047,-1.546875 1.37402,0 2.45215,0.05273 3.23437,0.152344 0.78809,0.102539 1.33594,0.219726 1.64063,0.351562 0.31055,0.125977 0.60937,0.454102 0.89062,0.984375 0.28125,0.533203 0.42188,0.993164 0.42188,1.382813 0,0.164062 -0.0439,0.287109 -0.12891,0.363281 -0.0879,0.07031 -0.18457,0.105469 -0.29297,0.105469 z m 12.99024,12.5390623 c 0,-0.1787109 0.0527,-0.3076172 0.16406,-0.3867187 0.1084,-0.084961 0.22852,-0.1289063 0.36328,-0.1289063 h 0.082 c 1.09278,0.2109375 2.3086,0.3867188 3.64453,0.5273438 1.33594,0.1347656 2.51075,0.1992187 3.52735,0.1992187 2.75683,0 4.48828,-0.2841797 5.1914,-0.8554687 0.70899,-0.5771485 1.06641,-1.5996094 1.06641,-3.0703125 0,-1.0839844 -0.16992,-1.7958985 -0.50391,-2.1328125 -0.32812,-0.3339844 -1.30078,-0.6796875 -2.91796,-1.0312501 -1.61133,-0.357422 -2.75098,-0.600586 -3.42188,-0.726562 -0.67383,-0.131836 -1.6875,-0.354493 -3.04687,-0.667969 -1.35938,-0.310547 -2.30567,-0.597656 -2.83594,-0.855469 -0.52442,-0.257812 -0.90235,-0.776367 -1.13672,-1.558594 -0.23438,-0.788086 -0.35156,-1.725586 -0.35156,-2.8125 0,-2.882812 0.72949,-4.936523 2.1914,-6.164062 1.46778,-1.22461 4.10157,-1.839844 7.89844,-1.839844 1.74023,0 3.08496,0.05859 4.03125,0.175781 0.94336,0.117188 1.57617,0.28125 1.89844,0.492188 0.31933,0.205078 0.63281,0.583008 0.9375,1.136719 0.30469,0.547851 0.45703,1.013671 0.45703,1.394531 0,0.164062 -0.0439,0.292969 -0.12891,0.386719 -0.0879,0.08789 -0.1875,0.128906 -0.30468,0.128906 h -0.0937 c -0.79688,-0.08496 -1.75489,-0.1875 -2.8711,-0.304688 -1.11914,-0.117187 -2.33203,-0.175781 -3.64453,-0.175781 -2.64258,0 -4.41797,0.28125 -5.33203,0.84375 -0.91406,0.5625 -1.37109,1.664063 -1.37109,3.304688 0,1.007812 0.14062,1.675781 0.42187,2.003906 0.28125,0.322265 1.22461,0.65332 2.83594,0.996094 1.61719,0.336914 3.49511,0.723632 5.63672,1.160156 2.14746,0.439453 3.45117,0.785156 3.91406,1.042969 0.45996,0.251953 0.82617,0.74414 1.10156,1.476562 0.28125,0.7265626 0.42188,1.7080079 0.42188,2.9414063 0,2.7744141 -0.58594,4.7988281 -1.75782,6.0703125 -1.17187,1.27441407 -3.91113,1.91015626 -8.21484,1.91015626 -1.52344,0 -2.88281,-0.0761719 -4.07812,-0.22265625 -1.19532,-0.14648437 -1.98047,-0.34570312 -2.35547,-0.59765625 -0.375,-0.24902344 -0.70899,-0.64453126 -0.9961,-1.18359376 -0.28125,-0.5390625 -0.42187,-1.03125 -0.42187,-1.4765625 z m 39.45703,-6.421875 c 0,0.4394531 -0.0586,0.7558594 -0.17578,0.9492188 -0.11719,0.1875 -0.35742,0.28125 -0.71485,0.28125 h -11.3789 c -0.52442,0 -0.86133,0.046875 -1.00781,0.140625 -0.14942,0.09375 -0.22266,0.2783203 -0.22266,0.5507812 0,1.7197266 0.39844,2.953125 1.19531,3.703125 0.79688,0.7441406 2.47266,1.1132813 5.02735,1.1132813 1.23339,0 2.39355,-0.061523 3.48046,-0.1875 1.09278,-0.131836 1.93653,-0.2636719 2.53125,-0.3984375 h 0.0937 c 0.0996,0 0.19336,0.043945 0.28125,0.1289062 0.0937,0.079102 0.14063,0.1962891 0.14063,0.3515625 0,0.421875 -0.18457,0.9111328 -0.55078,1.4648438 -0.36035,0.54785152 -0.70899,0.89941402 -1.04297,1.05468746 -0.33692,0.15820313 -0.96973,0.31054688 -1.89844,0.45703125 -0.92285,0.14648438 -2.18555,0.22265625 -3.78515,0.22265625 -3.53907,0 -5.95313,-0.69433594 -7.24219,-2.08593746 -1.28906,-1.397461 -1.9336,-3.8671875 -1.9336,-7.40625 0,-3.2109371 0.63282,-5.6542971 1.89844,-7.3359371 1.27149,-1.6875 3.69727,-2.53125 7.27735,-2.53125 3.35156,0 5.52539,0.703125 6.52734,2.109375 0.99902,1.40039 1.5,3.873046 1.5,7.4179683 z m -12.30469,-1.4765623 h 7.79297 c 0.32813,0 0.55078,-0.06445 0.66797,-0.199219 0.11719,-0.131836 0.17578,-0.375 0.17578,-0.726562 0,-1.514649 -0.29883,-2.613282 -0.89062,-3.292969 -0.59473,-0.685547 -1.84571,-1.03125 -3.75,-1.03125 -0.96094,0 -1.86036,0.134765 -2.69532,0.398437 -0.8291,0.257813 -1.44726,0.808594 -1.85156,1.652344 -0.40723,0.84375 -0.60937,1.708008 -0.60937,2.589844 0,0.266601 0.0732,0.433594 0.22265,0.503906 0.14649,0.07031 0.45996,0.105469 0.9375,0.105469 z m 34.5586,10.58203106 c 0,0.32226563 -0.14942,0.48046875 -0.44532,0.48046875 h -2.1914 c -0.39258,0 -0.64453,-0.08203125 -0.76172,-0.24609375 -0.11719,-0.1640625 -0.17578,-0.43945312 -0.17578,-0.83203126 V -11.13418 c 0,-2.015625 -0.29004,-3.328125 -0.86719,-3.9375 -0.57129,-0.609375 -1.83984,-0.914062 -3.80859,-0.914062 -3.17286,0 -4.81348,0.172851 -4.92188,0.515625 -0.10254,0.336914 -0.15234,0.703125 -0.15234,1.101562 v 13.85156281 c 0,0.34570313 -0.14063,0.515625 -0.42188,0.515625 h -2.67187 c -0.32227,0 -0.48047,-0.16992187 -0.48047,-0.515625 V -17.931055 c 0,-0.304687 0.21094,-0.480468 0.63281,-0.527343 0.42188,-0.04687 1.44727,-0.155274 3.08203,-0.328125 1.64063,-0.169922 3.34277,-0.257813 5.10938,-0.257813 2.38183,0 4.11328,0.210938 5.1914,0.632813 1.07813,0.416015 1.82813,1.075195 2.25,1.980468 0.42188,0.899414 0.63282,2.390625 0.63282,4.476563 z M 333.65469,-15.704492 h -0.0703 c -0.72657,-0.07031 -1.54395,-0.143555 -2.44922,-0.222656 -0.90821,-0.08496 -1.89551,-0.128907 -2.96485,-0.128907 -2.29687,0 -3.68847,0.240235 -4.17187,0.714844 -0.47754,0.477539 -0.71485,1.160156 -0.71485,2.050781 0,0.735352 0.13184,1.195313 0.39844,1.382813 0.26367,0.1875 1.01953,0.407226 2.26172,0.65625 1.24805,0.243164 2.66602,0.536133 4.25391,0.878906 1.59375,0.336914 2.5957,0.6152344 3.01172,0.8320313 0.41308,0.2197266 0.7207,0.6181641 0.92578,1.1953125 0.21093,0.5800781 0.3164,1.3212891 0.3164,2.2265625 0,2.1416016 -0.50976,3.7382813 -1.52343,4.7929688 -1.01661,1.04882809 -3.23438,1.57031246 -6.65625,1.57031246 -1.50879,0 -2.76563,-0.0703125 -3.77344,-0.2109375 -1.00781,-0.13183594 -1.71094,-0.54492187 -2.10938,-1.24218746 -0.39843,-0.694336 -0.59765,-1.21875 -0.59765,-1.5703125 0,-0.178711 0.0469,-0.3046875 0.14062,-0.375 0.0937,-0.076172 0.19043,-0.1171875 0.29297,-0.1171875 h 0.0703 c 0.71778,0.102539 1.58203,0.2109375 2.58985,0.328125 1.01367,0.1113281 2.13281,0.1640625 3.35156,0.1640625 2.03027,0 3.31641,-0.2138672 3.85547,-0.6445313 0.54492,-0.4365234 0.82031,-1.1074219 0.82031,-2.015625 0,-0.515625 -0.082,-0.9023437 -0.24609,-1.1601562 -0.16407,-0.2578125 -0.69727,-0.5039063 -1.59375,-0.7382813 -0.89063,-0.2402344 -1.85157,-0.4716797 -2.88282,-0.6914062 -1.03125,-0.2167969 -2.02734,-0.4365235 -2.98828,-0.65625 -0.95508,-0.225586 -1.67578,-0.4335938 -2.16797,-0.6210938 -0.49218,-0.1933594 -0.8291,-0.5976562 -1.00781,-1.2070313 -0.18164,-0.609375 -0.26953,-1.236328 -0.26953,-1.886719 0,-2.367187 0.55078,-4.066406 1.65234,-5.097656 1.10743,-1.03125 3.26954,-1.546875 6.48047,-1.546875 1.37403,0 2.45215,0.05273 3.23438,0.152344 0.78808,0.102539 1.33594,0.219726 1.64062,0.351562 0.31055,0.125977 0.60938,0.454102 0.89063,0.984375 0.28125,0.533203 0.42187,0.993164 0.42187,1.382813 0,0.164062 -0.0439,0.287109 -0.1289,0.363281 -0.0879,0.07031 -0.18457,0.105469 -0.29297,0.105469 z m 5.03906,6.5976561 c 0,-3.3750001 0.66797,-5.8857421 2.00391,-7.5351561 1.33593,-1.646485 3.85839,-2.472656 7.57031,-2.472656 3.64746,0 6.04101,0.770507 7.18359,2.308593 1.13965,1.532227 1.71094,3.914063 1.71094,7.1484378 0,3.2988281 -0.63281,5.8066406 -1.89844,7.5234375 -1.26562,1.71972657 -3.81445,2.57812501 -7.64062,2.57812501 -3.21094,0 -5.50489,-0.70898437 -6.87891,-2.13281251 -1.36816,-1.4208984 -2.05078,-3.8935547 -2.05078,-7.4179687 z m 3.52734,-0.1757813 c 0,2.2734375 0.33106,3.9492188 0.9961,5.0273438 0.6709,1.078125 2.18554,1.6171875 4.54687,1.6171875 1.57032,0 2.76563,-0.1933594 3.58594,-0.5859375 0.82617,-0.3984375 1.4209,-1.1542969 1.78125,-2.2734375 0.35742,-1.116211 0.53906,-2.4433594 0.53906,-3.984375 0,-1.6699221 -0.17285,-2.9912111 -0.51562,-3.9609371 -0.33692,-0.975586 -0.87305,-1.666993 -1.60547,-2.074219 -0.73535,-0.413086 -1.86328,-0.621094 -3.38672,-0.621094 -2.44629,0 -4.04883,0.583008 -4.80469,1.746094 -0.75879,1.157226 -1.13672,2.859375 -1.13672,5.1093748 z m 20.54297,-8.6835938 c 0,-0.342773 0.19043,-0.539062 0.57422,-0.585937 0.38086,-0.05274 1.25684,-0.146485 2.625,-0.28125 1.37402,-0.140625 2.66309,-0.210938 3.86719,-0.210938 1.75781,0 2.93555,0.06738 3.53906,0.199219 0.60938,0.125976 1.06641,0.46875 1.3711,1.03125 0.30468,0.55664 0.45703,1.101562 0.45703,1.640625 0,0.140625 -0.041,0.251953 -0.11719,0.328125 -0.0791,0.07031 -0.16992,0.105469 -0.26953,0.105469 h -0.0937 c -0.4541,-0.04687 -1.02832,-0.08496 -1.72266,-0.117188 -0.68848,-0.03809 -1.33594,-0.05859 -1.94531,-0.05859 -1.75195,0 -2.90625,0.04395 -3.46875,0.128907 -0.5625,0.0791 -0.91113,0.199218 -1.04297,0.363281 -0.13477,0.158203 -0.19922,0.533203 -0.19922,1.125 v 13.78124981 c 0,0.34570313 -0.17285,0.515625 -0.51562,0.515625 h -2.57813 c -0.32226,0 -0.48047,-0.16992187 -0.48047,-0.515625 z m 28.85157,2.261719 h -0.0703 c -0.72656,-0.07031 -1.54394,-0.143555 -2.44922,-0.222656 -0.9082,-0.08496 -1.8955,-0.128907 -2.96484,-0.128907 -2.29687,0 -3.68848,0.240235 -4.17187,0.714844 -0.47754,0.477539 -0.71485,1.160156 -0.71485,2.050781 0,0.735352 0.13184,1.195313 0.39844,1.382813 0.26367,0.1875 1.01953,0.407226 2.26172,0.65625 1.24804,0.243164 2.66601,0.536133 4.2539,0.878906 1.59375,0.336914 2.59571,0.6152344 3.01172,0.8320313 0.41309,0.2197266 0.72071,0.6181641 0.92578,1.1953125 0.21094,0.5800781 0.31641,1.3212891 0.31641,2.2265625 0,2.1416016 -0.50977,3.7382813 -1.52344,4.7929688 -1.0166,1.04882809 -3.23437,1.57031246 -6.65625,1.57031246 -1.50879,0 -2.76562,-0.0703125 -3.77343,-0.2109375 -1.00782,-0.13183594 -1.71094,-0.54492187 -2.10938,-1.24218746 -0.39844,-0.694336 -0.59766,-1.21875 -0.59766,-1.5703125 0,-0.178711 0.0469,-0.3046875 0.14063,-0.375 0.0937,-0.076172 0.19043,-0.1171875 0.29297,-0.1171875 h 0.0703 c 0.71777,0.102539 1.58203,0.2109375 2.58984,0.328125 1.01368,0.1113281 2.13282,0.1640625 3.35157,0.1640625 2.03027,0 3.3164,-0.2138672 3.85547,-0.6445313 0.54492,-0.4365234 0.82031,-1.1074219 0.82031,-2.015625 0,-0.515625 -0.082,-0.9023437 -0.2461,-1.1601562 -0.16406,-0.2578125 -0.69726,-0.5039063 -1.59375,-0.7382813 -0.89062,-0.2402344 -1.85156,-0.4716797 -2.88281,-0.6914062 -1.03125,-0.2167969 -2.02734,-0.4365235 -2.98828,-0.65625 -0.95508,-0.225586 -1.67578,-0.4335938 -2.16797,-0.6210938 -0.49219,-0.1933594 -0.8291,-0.5976562 -1.00781,-1.2070313 -0.18164,-0.609375 -0.26953,-1.236328 -0.26953,-1.886719 0,-2.367187 0.55078,-4.066406 1.65234,-5.097656 1.10742,-1.03125 3.26953,-1.546875 6.48047,-1.546875 1.37402,0 2.45215,0.05273 3.23438,0.152344 0.78808,0.102539 1.33593,0.219726 1.64062,0.351562 0.31055,0.125977 0.60938,0.454102 0.89063,0.984375 0.28125,0.533203 0.42187,0.993164 0.42187,1.382813 0,0.164062 -0.0439,0.287109 -0.12891,0.363281 -0.0879,0.07031 -0.18457,0.105469 -0.29296,0.105469 z m 0,0"
         style="fill:#000000;fill-opacity:1;fill-rule:nonzero;stroke:none"
         aria-label="  Structures as Sensors"
         transform="matrix(1.3333333,0,0,1.3333333,96.033333,375.46667)"
         clip-path="url(#clipPath5)" /></g></g></svg>
